<mxfile host="app.diagrams.net" modified="2022-10-31T15:37:33.036Z" agent="5.0 (Macintosh; Intel Mac OS X 10_15_7) AppleWebKit/537.36 (KHTML, like Gecko) Chrome/107.0.0.0 Safari/537.36" etag="sSqeXdTIG4HbYEPC5Z5a" version="20.5.1" type="github">
  <diagram id="M-NMLJ-GRihoXVEk9PDE" name="第 1 页">
    <mxGraphModel dx="1977" dy="1423" grid="0" gridSize="10" guides="1" tooltips="1" connect="1" arrows="1" fold="1" page="0" pageScale="1" pageWidth="827" pageHeight="1169" math="0" shadow="0">
      <root>
        <mxCell id="0" />
        <mxCell id="1" parent="0" />
        <mxCell id="LGP6RbaT7SLF7LyJpswc-1" value="" style="group" vertex="1" connectable="0" parent="1">
          <mxGeometry x="-336" y="-72" width="1120" height="1428" as="geometry" />
        </mxCell>
        <mxCell id="069RPiwoFql9w-VwrZ---35" value="" style="rounded=0;whiteSpace=wrap;html=1;fontSize=18;fillColor=none;dashed=1;" parent="LGP6RbaT7SLF7LyJpswc-1" vertex="1">
          <mxGeometry x="704" y="416" width="366" height="304" as="geometry" />
        </mxCell>
        <mxCell id="kU32YeyvPVjEQD3AdJrF-22" value="" style="rounded=0;whiteSpace=wrap;html=1;fontSize=18;fillColor=none;" parent="LGP6RbaT7SLF7LyJpswc-1" vertex="1">
          <mxGeometry x="86" y="385" width="1002" height="344" as="geometry" />
        </mxCell>
        <mxCell id="069RPiwoFql9w-VwrZ---1" value="" style="rounded=0;whiteSpace=wrap;html=1;" parent="LGP6RbaT7SLF7LyJpswc-1" vertex="1">
          <mxGeometry x="86" width="998" height="118" as="geometry" />
        </mxCell>
        <mxCell id="069RPiwoFql9w-VwrZ---2" value="&lt;font style=&quot;font-size: 18px;&quot;&gt;数据可视化大屏&lt;/font&gt;" style="text;html=1;strokeColor=none;fillColor=none;align=center;verticalAlign=middle;whiteSpace=wrap;rounded=0;" parent="LGP6RbaT7SLF7LyJpswc-1" vertex="1">
          <mxGeometry x="429" y="5" width="245" height="30" as="geometry" />
        </mxCell>
        <mxCell id="069RPiwoFql9w-VwrZ---32" style="edgeStyle=orthogonalEdgeStyle;rounded=0;orthogonalLoop=1;jettySize=auto;html=1;entryX=0;entryY=0.5;entryDx=0;entryDy=0;fontSize=18;" parent="LGP6RbaT7SLF7LyJpswc-1" source="069RPiwoFql9w-VwrZ---3" edge="1">
          <mxGeometry relative="1" as="geometry">
            <mxPoint x="724" y="493" as="targetPoint" />
          </mxGeometry>
        </mxCell>
        <mxCell id="069RPiwoFql9w-VwrZ---3" value="" style="rounded=0;whiteSpace=wrap;html=1;fontSize=18;" parent="LGP6RbaT7SLF7LyJpswc-1" vertex="1">
          <mxGeometry x="110" y="480" width="513" height="161" as="geometry" />
        </mxCell>
        <mxCell id="069RPiwoFql9w-VwrZ---5" style="edgeStyle=orthogonalEdgeStyle;rounded=0;orthogonalLoop=1;jettySize=auto;html=1;exitX=0.5;exitY=1;exitDx=0;exitDy=0;fontSize=18;" parent="LGP6RbaT7SLF7LyJpswc-1" source="069RPiwoFql9w-VwrZ---3" target="069RPiwoFql9w-VwrZ---3" edge="1">
          <mxGeometry relative="1" as="geometry" />
        </mxCell>
        <mxCell id="069RPiwoFql9w-VwrZ---6" value="" style="rounded=0;whiteSpace=wrap;html=1;fontSize=18;" parent="LGP6RbaT7SLF7LyJpswc-1" vertex="1">
          <mxGeometry x="123" y="515" width="77" height="107" as="geometry" />
        </mxCell>
        <mxCell id="069RPiwoFql9w-VwrZ---7" value="" style="rounded=0;whiteSpace=wrap;html=1;fontSize=18;" parent="LGP6RbaT7SLF7LyJpswc-1" vertex="1">
          <mxGeometry x="267" y="512.5" width="77" height="107" as="geometry" />
        </mxCell>
        <mxCell id="069RPiwoFql9w-VwrZ---8" value="" style="rounded=0;whiteSpace=wrap;html=1;fontSize=18;" parent="LGP6RbaT7SLF7LyJpswc-1" vertex="1">
          <mxGeometry x="401" y="512.5" width="77" height="107" as="geometry" />
        </mxCell>
        <mxCell id="069RPiwoFql9w-VwrZ---9" value="" style="rounded=0;whiteSpace=wrap;html=1;fontSize=18;" parent="LGP6RbaT7SLF7LyJpswc-1" vertex="1">
          <mxGeometry x="535" y="512.5" width="77" height="107" as="geometry" />
        </mxCell>
        <mxCell id="069RPiwoFql9w-VwrZ---10" value="样式&lt;br&gt;配置" style="text;html=1;strokeColor=none;fillColor=none;align=center;verticalAlign=middle;whiteSpace=wrap;rounded=0;fontSize=18;" parent="LGP6RbaT7SLF7LyJpswc-1" vertex="1">
          <mxGeometry x="131.5" y="559" width="60" height="30" as="geometry" />
        </mxCell>
        <mxCell id="069RPiwoFql9w-VwrZ---11" value="数据&lt;br&gt;绑定" style="text;html=1;strokeColor=none;fillColor=none;align=center;verticalAlign=middle;whiteSpace=wrap;rounded=0;fontSize=18;" parent="LGP6RbaT7SLF7LyJpswc-1" vertex="1">
          <mxGeometry x="281" y="559" width="60" height="30" as="geometry" />
        </mxCell>
        <mxCell id="069RPiwoFql9w-VwrZ---12" value="数据&lt;br&gt;监听" style="text;html=1;strokeColor=none;fillColor=none;align=center;verticalAlign=middle;whiteSpace=wrap;rounded=0;fontSize=18;" parent="LGP6RbaT7SLF7LyJpswc-1" vertex="1">
          <mxGeometry x="409.5" y="558" width="60" height="30" as="geometry" />
        </mxCell>
        <mxCell id="069RPiwoFql9w-VwrZ---13" value="其他&lt;br&gt;配置" style="text;html=1;strokeColor=none;fillColor=none;align=center;verticalAlign=middle;whiteSpace=wrap;rounded=0;fontSize=18;" parent="LGP6RbaT7SLF7LyJpswc-1" vertex="1">
          <mxGeometry x="543.5" y="553.5" width="60" height="30" as="geometry" />
        </mxCell>
        <mxCell id="069RPiwoFql9w-VwrZ---33" style="edgeStyle=orthogonalEdgeStyle;rounded=0;orthogonalLoop=1;jettySize=auto;html=1;fontSize=18;entryX=0;entryY=0.5;entryDx=0;entryDy=0;" parent="LGP6RbaT7SLF7LyJpswc-1" target="069RPiwoFql9w-VwrZ---21" edge="1">
          <mxGeometry relative="1" as="geometry">
            <mxPoint x="896" y="493" as="targetPoint" />
            <mxPoint x="844" y="493" as="sourcePoint" />
          </mxGeometry>
        </mxCell>
        <mxCell id="069RPiwoFql9w-VwrZ---17" value="" style="rounded=0;whiteSpace=wrap;html=1;fontSize=18;" parent="LGP6RbaT7SLF7LyJpswc-1" vertex="1">
          <mxGeometry x="729" y="466" width="120" height="60" as="geometry" />
        </mxCell>
        <mxCell id="069RPiwoFql9w-VwrZ---18" value="关系节点" style="text;html=1;strokeColor=none;fillColor=none;align=center;verticalAlign=middle;whiteSpace=wrap;rounded=0;fontSize=18;" parent="LGP6RbaT7SLF7LyJpswc-1" vertex="1">
          <mxGeometry x="743.5" y="482" width="81" height="28" as="geometry" />
        </mxCell>
        <mxCell id="069RPiwoFql9w-VwrZ---20" value="关系节点" style="text;html=1;strokeColor=none;fillColor=none;align=center;verticalAlign=middle;whiteSpace=wrap;rounded=0;fontSize=18;" parent="LGP6RbaT7SLF7LyJpswc-1" vertex="1">
          <mxGeometry x="743.5" y="482" width="81" height="28" as="geometry" />
        </mxCell>
        <mxCell id="069RPiwoFql9w-VwrZ---21" value="" style="rounded=0;whiteSpace=wrap;html=1;fontSize=18;" parent="LGP6RbaT7SLF7LyJpswc-1" vertex="1">
          <mxGeometry x="905" y="462" width="120" height="60" as="geometry" />
        </mxCell>
        <mxCell id="069RPiwoFql9w-VwrZ---22" value="关系解析" style="text;html=1;strokeColor=none;fillColor=none;align=center;verticalAlign=middle;whiteSpace=wrap;rounded=0;fontSize=18;" parent="LGP6RbaT7SLF7LyJpswc-1" vertex="1">
          <mxGeometry x="931" y="482" width="81" height="28" as="geometry" />
        </mxCell>
        <mxCell id="069RPiwoFql9w-VwrZ---26" value="关系网络" style="ellipse;shape=cloud;whiteSpace=wrap;html=1;fontSize=18;" parent="LGP6RbaT7SLF7LyJpswc-1" vertex="1">
          <mxGeometry x="892" y="563" width="182" height="99" as="geometry" />
        </mxCell>
        <mxCell id="kU32YeyvPVjEQD3AdJrF-35" style="edgeStyle=orthogonalEdgeStyle;rounded=0;orthogonalLoop=1;jettySize=auto;html=1;entryX=0.4;entryY=0.1;entryDx=0;entryDy=0;entryPerimeter=0;fontSize=18;" parent="LGP6RbaT7SLF7LyJpswc-1" source="069RPiwoFql9w-VwrZ---21" target="069RPiwoFql9w-VwrZ---26" edge="1">
          <mxGeometry relative="1" as="geometry" />
        </mxCell>
        <mxCell id="069RPiwoFql9w-VwrZ---31" style="edgeStyle=orthogonalEdgeStyle;rounded=0;orthogonalLoop=1;jettySize=auto;html=1;exitX=0;exitY=0.5;exitDx=0;exitDy=0;entryX=1;entryY=0.845;entryDx=0;entryDy=0;entryPerimeter=0;fontSize=18;" parent="LGP6RbaT7SLF7LyJpswc-1" source="069RPiwoFql9w-VwrZ---29" target="069RPiwoFql9w-VwrZ---3" edge="1">
          <mxGeometry relative="1" as="geometry" />
        </mxCell>
        <mxCell id="069RPiwoFql9w-VwrZ---29" value="事件" style="rounded=0;whiteSpace=wrap;html=1;fontSize=18;" parent="LGP6RbaT7SLF7LyJpswc-1" vertex="1">
          <mxGeometry x="729" y="622" width="120" height="60" as="geometry" />
        </mxCell>
        <mxCell id="069RPiwoFql9w-VwrZ---30" value="" style="edgeStyle=orthogonalEdgeStyle;rounded=0;orthogonalLoop=1;jettySize=auto;html=1;fontSize=18;exitX=0.055;exitY=0.475;exitDx=0;exitDy=0;exitPerimeter=0;" parent="LGP6RbaT7SLF7LyJpswc-1" source="069RPiwoFql9w-VwrZ---26" target="069RPiwoFql9w-VwrZ---29" edge="1">
          <mxGeometry relative="1" as="geometry" />
        </mxCell>
        <mxCell id="069RPiwoFql9w-VwrZ---36" value="交互组件" style="text;html=1;strokeColor=none;fillColor=none;align=center;verticalAlign=middle;whiteSpace=wrap;rounded=0;dashed=1;fontSize=18;" parent="LGP6RbaT7SLF7LyJpswc-1" vertex="1">
          <mxGeometry x="835" y="422" width="101" height="29" as="geometry" />
        </mxCell>
        <mxCell id="kU32YeyvPVjEQD3AdJrF-29" style="edgeStyle=orthogonalEdgeStyle;rounded=0;orthogonalLoop=1;jettySize=auto;html=1;exitX=0.5;exitY=1;exitDx=0;exitDy=0;fontSize=18;" parent="LGP6RbaT7SLF7LyJpswc-1" source="kU32YeyvPVjEQD3AdJrF-2" edge="1">
          <mxGeometry relative="1" as="geometry">
            <mxPoint x="228.72727272727252" y="172.36363636363626" as="targetPoint" />
          </mxGeometry>
        </mxCell>
        <mxCell id="kU32YeyvPVjEQD3AdJrF-2" value="&lt;font style=&quot;font-size: 18px;&quot;&gt;视图1&lt;/font&gt;" style="rounded=0;whiteSpace=wrap;html=1;" parent="LGP6RbaT7SLF7LyJpswc-1" vertex="1">
          <mxGeometry x="170" y="41" width="120" height="60" as="geometry" />
        </mxCell>
        <mxCell id="kU32YeyvPVjEQD3AdJrF-3" value="&lt;font style=&quot;font-size: 18px;&quot;&gt;视图2&lt;/font&gt;" style="rounded=0;whiteSpace=wrap;html=1;" parent="LGP6RbaT7SLF7LyJpswc-1" vertex="1">
          <mxGeometry x="432" y="40" width="120" height="60" as="geometry" />
        </mxCell>
        <mxCell id="kU32YeyvPVjEQD3AdJrF-7" value="" style="rounded=0;whiteSpace=wrap;html=1;fontSize=18;" parent="LGP6RbaT7SLF7LyJpswc-1" vertex="1">
          <mxGeometry x="152" y="179" width="524" height="60" as="geometry" />
        </mxCell>
        <mxCell id="kU32YeyvPVjEQD3AdJrF-4" value="&lt;font style=&quot;font-size: 18px;&quot;&gt;视图n&lt;/font&gt;" style="rounded=0;whiteSpace=wrap;html=1;" parent="LGP6RbaT7SLF7LyJpswc-1" vertex="1">
          <mxGeometry x="936" y="42" width="120" height="60" as="geometry" />
        </mxCell>
        <mxCell id="kU32YeyvPVjEQD3AdJrF-5" value="……" style="text;html=1;strokeColor=none;fillColor=none;align=center;verticalAlign=middle;whiteSpace=wrap;rounded=0;fontSize=18;" parent="LGP6RbaT7SLF7LyJpswc-1" vertex="1">
          <mxGeometry x="719" y="55" width="60" height="30" as="geometry" />
        </mxCell>
        <mxCell id="kU32YeyvPVjEQD3AdJrF-15" style="edgeStyle=orthogonalEdgeStyle;rounded=0;orthogonalLoop=1;jettySize=auto;html=1;fontSize=18;" parent="LGP6RbaT7SLF7LyJpswc-1" source="kU32YeyvPVjEQD3AdJrF-10" edge="1">
          <mxGeometry relative="1" as="geometry">
            <mxPoint x="229.49999999999977" y="278.7272727272725" as="targetPoint" />
          </mxGeometry>
        </mxCell>
        <mxCell id="kU32YeyvPVjEQD3AdJrF-10" value="可视化组件1" style="rounded=0;whiteSpace=wrap;html=1;fontSize=18;" parent="LGP6RbaT7SLF7LyJpswc-1" vertex="1">
          <mxGeometry x="165" y="194" width="129" height="35" as="geometry" />
        </mxCell>
        <mxCell id="kU32YeyvPVjEQD3AdJrF-19" style="edgeStyle=orthogonalEdgeStyle;rounded=0;orthogonalLoop=1;jettySize=auto;html=1;fontSize=18;" parent="LGP6RbaT7SLF7LyJpswc-1" source="kU32YeyvPVjEQD3AdJrF-11" edge="1">
          <mxGeometry relative="1" as="geometry">
            <mxPoint x="390.49999999999955" y="278.7272727272725" as="targetPoint" />
          </mxGeometry>
        </mxCell>
        <mxCell id="kU32YeyvPVjEQD3AdJrF-11" value="可视化组件2" style="rounded=0;whiteSpace=wrap;html=1;fontSize=18;" parent="LGP6RbaT7SLF7LyJpswc-1" vertex="1">
          <mxGeometry x="326" y="190" width="129" height="40" as="geometry" />
        </mxCell>
        <mxCell id="kU32YeyvPVjEQD3AdJrF-20" style="edgeStyle=orthogonalEdgeStyle;rounded=0;orthogonalLoop=1;jettySize=auto;html=1;fontSize=18;" parent="LGP6RbaT7SLF7LyJpswc-1" source="kU32YeyvPVjEQD3AdJrF-12" edge="1">
          <mxGeometry relative="1" as="geometry">
            <mxPoint x="602.5" y="280.5454545454545" as="targetPoint" />
          </mxGeometry>
        </mxCell>
        <mxCell id="kU32YeyvPVjEQD3AdJrF-12" value="可视化组件n" style="rounded=0;whiteSpace=wrap;html=1;fontSize=18;" parent="LGP6RbaT7SLF7LyJpswc-1" vertex="1">
          <mxGeometry x="538" y="190" width="129" height="40" as="geometry" />
        </mxCell>
        <mxCell id="kU32YeyvPVjEQD3AdJrF-13" value="……" style="text;html=1;strokeColor=none;fillColor=none;align=center;verticalAlign=middle;whiteSpace=wrap;rounded=0;fontSize=18;" parent="LGP6RbaT7SLF7LyJpswc-1" vertex="1">
          <mxGeometry x="465.5" y="198" width="60" height="30" as="geometry" />
        </mxCell>
        <mxCell id="kU32YeyvPVjEQD3AdJrF-28" style="edgeStyle=orthogonalEdgeStyle;rounded=0;orthogonalLoop=1;jettySize=auto;html=1;exitX=0.5;exitY=1;exitDx=0;exitDy=0;entryX=0.331;entryY=-0.008;entryDx=0;entryDy=0;entryPerimeter=0;fontSize=18;" parent="LGP6RbaT7SLF7LyJpswc-1" source="kU32YeyvPVjEQD3AdJrF-14" target="kU32YeyvPVjEQD3AdJrF-22" edge="1">
          <mxGeometry relative="1" as="geometry" />
        </mxCell>
        <mxCell id="kU32YeyvPVjEQD3AdJrF-14" value="可视化组件拆分" style="rounded=0;whiteSpace=wrap;html=1;fontSize=18;" parent="LGP6RbaT7SLF7LyJpswc-1" vertex="1">
          <mxGeometry x="155" y="282" width="522" height="60" as="geometry" />
        </mxCell>
        <mxCell id="kU32YeyvPVjEQD3AdJrF-30" style="edgeStyle=orthogonalEdgeStyle;rounded=0;orthogonalLoop=1;jettySize=auto;html=1;fontSize=18;entryX=0.5;entryY=1;entryDx=0;entryDy=0;exitX=0.698;exitY=1.01;exitDx=0;exitDy=0;exitPerimeter=0;" parent="LGP6RbaT7SLF7LyJpswc-1" source="kU32YeyvPVjEQD3AdJrF-22" target="kU32YeyvPVjEQD3AdJrF-3" edge="1">
          <mxGeometry relative="1" as="geometry">
            <mxPoint x="505.090909090909" y="137.81818181818176" as="targetPoint" />
            <Array as="points">
              <mxPoint x="785" y="760" />
              <mxPoint x="1120" y="760" />
              <mxPoint x="1120" y="161" />
              <mxPoint x="493" y="161" />
            </Array>
          </mxGeometry>
        </mxCell>
        <mxCell id="kU32YeyvPVjEQD3AdJrF-16" style="edgeStyle=orthogonalEdgeStyle;rounded=0;orthogonalLoop=1;jettySize=auto;html=1;exitX=0.5;exitY=1;exitDx=0;exitDy=0;fontSize=18;" parent="LGP6RbaT7SLF7LyJpswc-1" source="kU32YeyvPVjEQD3AdJrF-11" target="kU32YeyvPVjEQD3AdJrF-11" edge="1">
          <mxGeometry relative="1" as="geometry" />
        </mxCell>
        <mxCell id="kU32YeyvPVjEQD3AdJrF-24" value="" style="rounded=0;whiteSpace=wrap;html=1;fontSize=18;fillColor=none;dashed=1;" parent="LGP6RbaT7SLF7LyJpswc-1" vertex="1">
          <mxGeometry x="99" y="417" width="540" height="297" as="geometry" />
        </mxCell>
        <mxCell id="kU32YeyvPVjEQD3AdJrF-27" value="" style="endArrow=classic;html=1;rounded=0;fontSize=18;entryX=0.5;entryY=1;entryDx=0;entryDy=0;" parent="LGP6RbaT7SLF7LyJpswc-1" target="kU32YeyvPVjEQD3AdJrF-4" edge="1">
          <mxGeometry width="50" height="50" relative="1" as="geometry">
            <mxPoint x="996.6800000000001" y="162" as="sourcePoint" />
            <mxPoint x="996.6800000000001" y="111" as="targetPoint" />
          </mxGeometry>
        </mxCell>
        <mxCell id="kU32YeyvPVjEQD3AdJrF-31" value="" style="endArrow=none;html=1;rounded=0;fontSize=18;" parent="LGP6RbaT7SLF7LyJpswc-1" edge="1">
          <mxGeometry width="50" height="50" relative="1" as="geometry">
            <mxPoint x="785" y="735" as="sourcePoint" />
            <mxPoint x="785" y="685" as="targetPoint" />
          </mxGeometry>
        </mxCell>
        <mxCell id="kU32YeyvPVjEQD3AdJrF-33" value="可视化图表组件" style="text;html=1;strokeColor=none;fillColor=none;align=center;verticalAlign=middle;whiteSpace=wrap;rounded=0;dashed=1;fontSize=18;" parent="LGP6RbaT7SLF7LyJpswc-1" vertex="1">
          <mxGeometry x="267" y="429" width="165" height="30" as="geometry" />
        </mxCell>
        <mxCell id="zM-D6q-c0g1kVyf-X_Cu-1" value="&lt;font style=&quot;font-size: 18px;&quot;&gt;组件1&lt;/font&gt;" style="rounded=1;whiteSpace=wrap;html=1;" parent="LGP6RbaT7SLF7LyJpswc-1" vertex="1">
          <mxGeometry x="28" y="1046" width="120" height="36" as="geometry" />
        </mxCell>
        <mxCell id="zM-D6q-c0g1kVyf-X_Cu-2" value="&lt;font style=&quot;font-size: 18px;&quot;&gt;组件2&lt;/font&gt;" style="rounded=1;whiteSpace=wrap;html=1;" parent="LGP6RbaT7SLF7LyJpswc-1" vertex="1">
          <mxGeometry x="257" y="1046" width="120" height="36" as="geometry" />
        </mxCell>
        <mxCell id="zM-D6q-c0g1kVyf-X_Cu-3" value="&lt;font style=&quot;font-size: 18px;&quot;&gt;组件n&lt;/font&gt;" style="rounded=1;whiteSpace=wrap;html=1;" parent="LGP6RbaT7SLF7LyJpswc-1" vertex="1">
          <mxGeometry x="644" y="1046" width="120" height="36" as="geometry" />
        </mxCell>
        <mxCell id="zM-D6q-c0g1kVyf-X_Cu-6" value="" style="endArrow=classic;html=1;rounded=0;fontSize=18;entryX=0;entryY=0.5;entryDx=0;entryDy=0;" parent="LGP6RbaT7SLF7LyJpswc-1" target="zM-D6q-c0g1kVyf-X_Cu-2" edge="1">
          <mxGeometry relative="1" as="geometry">
            <mxPoint x="150" y="1064" as="sourcePoint" />
            <mxPoint x="250" y="1064" as="targetPoint" />
          </mxGeometry>
        </mxCell>
        <mxCell id="zM-D6q-c0g1kVyf-X_Cu-7" value="&lt;font style=&quot;font-size: 14px;&quot;&gt;数据&lt;br&gt;信息流&lt;/font&gt;" style="edgeLabel;resizable=0;html=1;align=center;verticalAlign=middle;fontSize=18;" parent="zM-D6q-c0g1kVyf-X_Cu-6" connectable="0" vertex="1">
          <mxGeometry relative="1" as="geometry" />
        </mxCell>
        <mxCell id="zM-D6q-c0g1kVyf-X_Cu-8" value="" style="endArrow=classic;html=1;rounded=0;fontSize=18;entryX=0;entryY=0.5;entryDx=0;entryDy=0;" parent="LGP6RbaT7SLF7LyJpswc-1" edge="1">
          <mxGeometry relative="1" as="geometry">
            <mxPoint x="379" y="1063.5" as="sourcePoint" />
            <mxPoint x="486" y="1063.5" as="targetPoint" />
          </mxGeometry>
        </mxCell>
        <mxCell id="zM-D6q-c0g1kVyf-X_Cu-9" value="&lt;font style=&quot;font-size: 14px;&quot;&gt;数据&lt;br&gt;信息流&lt;/font&gt;" style="edgeLabel;resizable=0;html=1;align=center;verticalAlign=middle;fontSize=18;" parent="zM-D6q-c0g1kVyf-X_Cu-8" connectable="0" vertex="1">
          <mxGeometry relative="1" as="geometry" />
        </mxCell>
        <mxCell id="zM-D6q-c0g1kVyf-X_Cu-10" value="" style="endArrow=classic;html=1;rounded=0;fontSize=18;entryX=0;entryY=0.5;entryDx=0;entryDy=0;" parent="LGP6RbaT7SLF7LyJpswc-1" edge="1">
          <mxGeometry relative="1" as="geometry">
            <mxPoint x="535" y="1063.5" as="sourcePoint" />
            <mxPoint x="642" y="1063.5" as="targetPoint" />
          </mxGeometry>
        </mxCell>
        <mxCell id="zM-D6q-c0g1kVyf-X_Cu-11" value="&lt;font style=&quot;font-size: 14px;&quot;&gt;数据&lt;br&gt;信息流&lt;/font&gt;" style="edgeLabel;resizable=0;html=1;align=center;verticalAlign=middle;fontSize=18;" parent="zM-D6q-c0g1kVyf-X_Cu-10" connectable="0" vertex="1">
          <mxGeometry relative="1" as="geometry" />
        </mxCell>
        <mxCell id="zM-D6q-c0g1kVyf-X_Cu-12" value="……" style="text;html=1;strokeColor=none;fillColor=none;align=center;verticalAlign=middle;whiteSpace=wrap;rounded=0;fontSize=14;" parent="LGP6RbaT7SLF7LyJpswc-1" vertex="1">
          <mxGeometry x="481" y="1046" width="60" height="30" as="geometry" />
        </mxCell>
        <mxCell id="zM-D6q-c0g1kVyf-X_Cu-13" value="&lt;font style=&quot;font-size: 18px;&quot;&gt;组件1&lt;/font&gt;" style="rounded=1;whiteSpace=wrap;html=1;" parent="LGP6RbaT7SLF7LyJpswc-1" vertex="1">
          <mxGeometry x="21" y="1267" width="120" height="36" as="geometry" />
        </mxCell>
        <mxCell id="zM-D6q-c0g1kVyf-X_Cu-14" value="" style="rounded=0;whiteSpace=wrap;html=1;fontSize=14;dashed=1;fillColor=none;" parent="LGP6RbaT7SLF7LyJpswc-1" vertex="1">
          <mxGeometry x="3" y="991" width="799" height="115" as="geometry" />
        </mxCell>
        <mxCell id="zM-D6q-c0g1kVyf-X_Cu-15" value="串行事件" style="text;html=1;strokeColor=none;fillColor=none;align=center;verticalAlign=middle;whiteSpace=wrap;rounded=0;dashed=1;fontSize=14;" parent="LGP6RbaT7SLF7LyJpswc-1" vertex="1">
          <mxGeometry x="341" y="1000" width="60" height="30" as="geometry" />
        </mxCell>
        <mxCell id="zM-D6q-c0g1kVyf-X_Cu-16" value="&lt;font style=&quot;font-size: 18px;&quot;&gt;组件3&lt;/font&gt;" style="rounded=1;whiteSpace=wrap;html=1;" parent="LGP6RbaT7SLF7LyJpswc-1" vertex="1">
          <mxGeometry x="232" y="1303" width="120" height="36" as="geometry" />
        </mxCell>
        <mxCell id="zM-D6q-c0g1kVyf-X_Cu-21" style="edgeStyle=orthogonalEdgeStyle;rounded=0;orthogonalLoop=1;jettySize=auto;html=1;exitX=1;exitY=0.5;exitDx=0;exitDy=0;entryX=0;entryY=0.5;entryDx=0;entryDy=0;fontSize=14;" parent="LGP6RbaT7SLF7LyJpswc-1" source="zM-D6q-c0g1kVyf-X_Cu-13" target="zM-D6q-c0g1kVyf-X_Cu-16" edge="1">
          <mxGeometry relative="1" as="geometry" />
        </mxCell>
        <mxCell id="zM-D6q-c0g1kVyf-X_Cu-22" style="edgeStyle=orthogonalEdgeStyle;rounded=0;orthogonalLoop=1;jettySize=auto;html=1;exitX=1;exitY=0.5;exitDx=0;exitDy=0;fontSize=14;" parent="LGP6RbaT7SLF7LyJpswc-1" source="zM-D6q-c0g1kVyf-X_Cu-17" edge="1">
          <mxGeometry relative="1" as="geometry">
            <mxPoint x="395" y="1245" as="targetPoint" />
          </mxGeometry>
        </mxCell>
        <mxCell id="zM-D6q-c0g1kVyf-X_Cu-17" value="&lt;font style=&quot;font-size: 18px; font-weight: normal;&quot;&gt;组件2&lt;/font&gt;" style="rounded=1;whiteSpace=wrap;html=1;fontStyle=1" parent="LGP6RbaT7SLF7LyJpswc-1" vertex="1">
          <mxGeometry x="235" y="1227" width="120" height="36" as="geometry" />
        </mxCell>
        <mxCell id="zM-D6q-c0g1kVyf-X_Cu-20" style="edgeStyle=orthogonalEdgeStyle;rounded=0;orthogonalLoop=1;jettySize=auto;html=1;exitX=1;exitY=0.25;exitDx=0;exitDy=0;entryX=0;entryY=0.5;entryDx=0;entryDy=0;fontSize=14;" parent="LGP6RbaT7SLF7LyJpswc-1" source="zM-D6q-c0g1kVyf-X_Cu-13" target="zM-D6q-c0g1kVyf-X_Cu-17" edge="1">
          <mxGeometry relative="1" as="geometry" />
        </mxCell>
        <mxCell id="zM-D6q-c0g1kVyf-X_Cu-18" value="&lt;font style=&quot;font-size: 18px; font-weight: normal;&quot;&gt;组件4&lt;/font&gt;" style="rounded=1;whiteSpace=wrap;html=1;fontStyle=1" parent="LGP6RbaT7SLF7LyJpswc-1" vertex="1">
          <mxGeometry x="401" y="1224" width="120" height="36" as="geometry" />
        </mxCell>
        <mxCell id="zM-D6q-c0g1kVyf-X_Cu-19" value="&lt;font style=&quot;font-size: 18px; font-weight: normal;&quot;&gt;组件5&lt;/font&gt;" style="rounded=1;whiteSpace=wrap;html=1;fontStyle=1" parent="LGP6RbaT7SLF7LyJpswc-1" vertex="1">
          <mxGeometry x="230" y="1379" width="120" height="36" as="geometry" />
        </mxCell>
        <mxCell id="zM-D6q-c0g1kVyf-X_Cu-25" style="edgeStyle=orthogonalEdgeStyle;rounded=0;orthogonalLoop=1;jettySize=auto;html=1;exitX=1;exitY=0.75;exitDx=0;exitDy=0;entryX=0;entryY=0.5;entryDx=0;entryDy=0;fontSize=14;" parent="LGP6RbaT7SLF7LyJpswc-1" source="zM-D6q-c0g1kVyf-X_Cu-13" target="zM-D6q-c0g1kVyf-X_Cu-19" edge="1">
          <mxGeometry relative="1" as="geometry">
            <Array as="points">
              <mxPoint x="167" y="1294" />
              <mxPoint x="167" y="1397" />
            </Array>
          </mxGeometry>
        </mxCell>
        <mxCell id="zM-D6q-c0g1kVyf-X_Cu-26" value="" style="rounded=0;whiteSpace=wrap;html=1;dashed=1;fontSize=14;fillColor=none;" parent="LGP6RbaT7SLF7LyJpswc-1" vertex="1">
          <mxGeometry y="1174" width="820" height="254" as="geometry" />
        </mxCell>
        <mxCell id="zM-D6q-c0g1kVyf-X_Cu-27" value="并行事件" style="text;html=1;strokeColor=none;fillColor=none;align=center;verticalAlign=middle;whiteSpace=wrap;rounded=0;dashed=1;fontSize=14;" parent="LGP6RbaT7SLF7LyJpswc-1" vertex="1">
          <mxGeometry x="341" y="1183" width="60" height="30" as="geometry" />
        </mxCell>
      </root>
    </mxGraphModel>
  </diagram>
</mxfile>
